<svg id="OBJECTS" xmlns="http://www.w3.org/2000/svg" viewBox="0 0 464.98 136.45"><defs><style>.cls-1,.cls-2{fill:none;stroke:#00497a;stroke-linecap:round;stroke-linejoin:round;}.cls-2{stroke-width:0.5px;}</style></defs><title>hero</title><path class="cls-1" d="M120.1,122.28s.06-1.66-1.1-1.7a12.5,12.5,0,0,0-2.64.32" transform="translate(-26.95 -64.27)"/><path class="cls-1" d="M92.68,111.88s.06-1.67-1.1-1.7a11.92,11.92,0,0,0-2.64.32" transform="translate(-26.95 -64.27)"/><path class="cls-2" d="M106.55,140.79s-12.58,4-11.9,17.2,15.13,16,21,12.58" transform="translate(-26.95 -64.27)"/><path class="cls-1" d="M96.32,171.64a19.33,19.33,0,0,0,14.52,4.49s11-2.46,14.12-10.7" transform="translate(-26.95 -64.27)"/><path class="cls-1" d="M135.36,136.45s-7.71-2.58-13.1-1.59-16.91,1.22-20.61,4.12" transform="translate(-26.95 -64.27)"/><path class="cls-2" d="M131.87,142.46s-3.58-5.81-15.49-6.77" transform="translate(-26.95 -64.27)"/><path class="cls-1" d="M140.68,128.67s-30.89-8.62-58.95-21.29S31.06,83.61,27.57,84.7s68,43.31,91.21,50.39" transform="translate(-26.95 -64.27)"/><path class="cls-2" d="M124.2,134.39S53.72,105.11,29.69,85.07" transform="translate(-26.95 -64.27)"/><path class="cls-2" d="M75.24,114.47s-1.24-1.62-.14-2.16,12.55-2.48,12.55-2.48" transform="translate(-26.95 -64.27)"/><path class="cls-2" d="M98.47,126.5s-1.55-1.88,0-3.47,13.09-3.69,13.09-3.69" transform="translate(-26.95 -64.27)"/><path class="cls-1" d="M121.56,163.48s5-18-10.7-22.16c-15.11-4-21.34,10.34-19.53,19.54,1,5.25,3.16,9.44,11.92,12S119.28,169.37,121.56,163.48Z" transform="translate(-26.95 -64.27)"/><path class="cls-2" d="M119.15,161s3.31-11.86-7.07-14.62c-10-2.66-14.08,6.82-12.89,12.89.69,3.47,2.09,6.23,7.87,7.93S117.64,164.93,119.15,161Z" transform="translate(-26.95 -64.27)"/><path class="cls-2" d="M117.88,160.5s2.89-10.34-6.15-12.75C103,145.44,99.45,153.7,100.5,159c.59,3,1.81,5.43,6.85,6.91S116.57,163.89,117.88,160.5Z" transform="translate(-26.95 -64.27)"/><path class="cls-2" d="M112,157.78s.93-3.31-2-4.08-3.92,1.9-3.59,3.59a2.6,2.6,0,0,0,2.19,2.22A2.83,2.83,0,0,0,112,157.78Z" transform="translate(-26.95 -64.27)"/><path class="cls-2" d="M110.68,157.49s.69-2.79-1.55-3.46-3,1.58-2.75,3a2.18,2.18,0,0,0,1.71,1.88A2.11,2.11,0,0,0,110.68,157.49Z" transform="translate(-26.95 -64.27)"/><path class="cls-1" d="M126.91,155s-1.12-9.82-8.32-14-17.36-4.51-24.45,3.44a18.86,18.86,0,0,0,3.41,28.15c10,7.18,24.17,4.52,28.62-.44" transform="translate(-26.95 -64.27)"/><path class="cls-2" d="M64.52,99.66s-10.52.28-10.95,1,.54,1.9.54,1.9" transform="translate(-26.95 -64.27)"/><ellipse class="cls-2" cx="311.29" cy="180.63" rx="12.47" ry="11.55" transform="translate(-42.57 -34.17) rotate(-5.4)"/><path class="cls-2" d="M322.08,179.61c.52,5.52-3.89,10.45-9.85,11s-11.21-3.46-11.73-9,3.88-10.46,9.84-11S321.56,174.09,322.08,179.61Z" transform="translate(-26.95 -64.27)"/><path class="cls-2" d="M314,179.88a3.8,3.8,0,1,1-4.11-3.15A3.66,3.66,0,0,1,314,179.88Z" transform="translate(-26.95 -64.27)"/><path class="cls-2" d="M314.84,179.8a4.21,4.21,0,1,1-4.54-3.42A4,4,0,0,1,314.84,179.8Z" transform="translate(-26.95 -64.27)"/><path class="cls-1" d="M318.44,198.87s13.08-3,14.76-18.55S318.23,156.65,308,159s-16.34,9.87-16.59,20.61" transform="translate(-26.95 -64.27)"/><path class="cls-1" d="M294.75,167.06s-2.91-1.36-3.39-1.19,2.14,4,2.14,4" transform="translate(-26.95 -64.27)"/><path class="cls-1" d="M320.72,160.32s37.59-3.81,59.52-6.64c10.15-1.31,34.35-5.44,57.59-9.64,26.94-4.88,52.59-9.87,53.6-10.71l-1.09-.78s-62.19,9-88,11.73-90.19,7.65-119.31,6.49c0,0-16.41-.21-24.55.43,0,0-11.08,1.43-13.34,5.55s-4.33,8.86-2.93,13l56.38-6.46" transform="translate(-26.95 -64.27)"/><path class="cls-2" d="M433.6,140.57s5.26,1.06,4.23,3.47" transform="translate(-26.95 -64.27)"/><path class="cls-2" d="M402.85,150.22a4.25,4.25,0,0,0,0-2.13c-.34-.63-4.3-3.47-4.3-3.47" transform="translate(-26.95 -64.27)"/><path class="cls-2" d="M365.82,155.23a3.22,3.22,0,0,0-.45-2.79,55.77,55.77,0,0,0-4.85-4.74" transform="translate(-26.95 -64.27)"/><path class="cls-2" d="M326.24,159.69s.74-2.67-.56-4.4-5.63-5-5.63-5" transform="translate(-26.95 -64.27)"/><path class="cls-2" d="M306.3,150.84s-2.25,7.21-2,9.17" transform="translate(-26.95 -64.27)"/><path class="cls-1" d="M319.19,160.12s.45-3.17-.2-3.11-6.7-.78-6.7-.78-1.15-.18-1.77,2.25" transform="translate(-26.95 -64.27)"/><path class="cls-1" d="M258.44,151.2s-6.95-.85-8-.66-7.18,4.08-9.95,8.79-6.24,9-5.63,11.5l7.76-1" transform="translate(-26.95 -64.27)"/><line class="cls-2" x1="209.9" y1="101.1" x2="282.64" y2="94.39"/><path class="cls-2" d="M319.66,158.09s101.86-11,164.62-24.36" transform="translate(-26.95 -64.27)"/><path class="cls-2" d="M247.25,167.49l.15-1.44S241.5,166.71,247.25,167.49Z" transform="translate(-26.95 -64.27)"/><path class="cls-2" d="M239.89,168.66l-.14-1.41S232.8,168.76,239.89,168.66Z" transform="translate(-26.95 -64.27)"/><path class="cls-1" d="M253.77,168.48s-12.36,7.22-19.3,7.88-20.61,0-20.61,0" transform="translate(-26.95 -64.27)"/><polygon class="cls-2" points="204.27 105.77 200.06 109.2 202.62 110.28 206.03 106.36 204.27 105.77"/><ellipse class="cls-1" cx="311.29" cy="180.63" rx="17.07" ry="15.82" transform="translate(-42.57 -34.17) rotate(-5.4)"/><ellipse class="cls-1" cx="311.3" cy="180.75" rx="19.84" ry="19.46" transform="translate(-42.58 -34.17) rotate(-5.4)"/><path class="cls-1" d="M212.11,112.18c-12.67-1.25-25.8-2.08-35.56-1.53-26.34,1.48-43.46,21.76-50.16,45.6-5.64,20.06,7.48,31.07,29.22,34.31s60.12-15,60.12-15,22-12.73,26.12-27.12" transform="translate(-26.95 -64.27)"/><path class="cls-1" d="M264.33,150.77s9.45-1.4,7.56-16.1c-2.07-16-18-17-18-17s-14-2.12-30.76-4.12" transform="translate(-26.95 -64.27)"/><path class="cls-1" d="M271.94,132.52l57.9-3.77a18.11,18.11,0,0,1-5.26,2.39c-3.14.86-52.54,6.48-52.54,6.48" transform="translate(-26.95 -64.27)"/><line class="cls-2" x1="244.94" y1="70.4" x2="301.63" y2="65.17"/><polyline class="cls-1" points="237.1 56.89 245.13 2.27 245.39 0.5 243.16 0.9 228.5 53.92"/><line class="cls-2" x1="231.16" y1="54.05" x2="245.39" y2="0.5"/><path class="cls-1" d="M225.33,115.75s-5.91-8.52-14.48-3.17C210.85,112.58,215.23,116.89,225.33,115.75Z" transform="translate(-26.95 -64.27)"/><path class="cls-2" d="M232.58,154.4s2.43-12.33-2.89-22.61l2.64-.06s6.55,11.3,2.48,22.27Z" transform="translate(-26.95 -64.27)"/><path class="cls-2" d="M259.07,148.49s2.55-7.05-2.52-18.67l1.87-.18s4.62,10.82,2.4,18.31Z" transform="translate(-26.95 -64.27)"/><path class="cls-2" d="M204,160.31s2.14-15.7-6.26-28.52l-7,.28s9.85,18.78,5.75,31.46" transform="translate(-26.95 -64.27)"/><polyline class="cls-2" points="205.85 79.51 182.44 82.96 181.94 75.63 204.64 73.34"/><line class="cls-2" x1="232.62" y1="75.56" x2="209.21" y2="79.01"/><path class="cls-2" d="M260.56,135.24l6.1-.54,3.66-.32s.61,3.53-.2,3.9l-8.86,1.3" transform="translate(-26.95 -64.27)"/><line class="cls-2" x1="207.91" y1="73.25" x2="231.36" y2="71.17"/><path class="cls-2" d="M266.1,134.78a4.8,4.8,0,0,1-.2,3.89" transform="translate(-26.95 -64.27)"/><path class="cls-1" d="M254.19,135.9a5.28,5.28,0,0,1,.25,4.61" transform="translate(-26.95 -64.27)"/><path class="cls-1" d="M247.57,136.61a4.84,4.84,0,0,1,.31,4.61" transform="translate(-26.95 -64.27)"/><path class="cls-2" d="M239.94,137.25s1.52,3,.33,5.46" transform="translate(-26.95 -64.27)"/><path class="cls-1" d="M227.54,138.14a14.84,14.84,0,0,1,.14,6.42" transform="translate(-26.95 -64.27)"/><path class="cls-2" d="M218.92,139a22.09,22.09,0,0,1-.2,6.92" transform="translate(-26.95 -64.27)"/><path class="cls-2" d="M125,167.22s2.17-13.66,18.85-12.75c15.21.83,18.2,20.17,14.82,24.7-3.19,4.27-9.53,9.22-20.41,6.28" transform="translate(-26.95 -64.27)"/><polygon class="cls-2" points="116.79 85.83 106.86 79.8 112.36 71.9 121.6 76.11 116.79 85.83"/><path class="cls-2" d="M146.24,150.14l4.55-9.19,16.49-1.56,3.2,9.14Z" transform="translate(-26.95 -64.27)"/><path class="cls-2" d="M169.69,139.45c1.78.22,4.41.62,4.41.62l6.37,5.26-1.95,5.48L173.05,149Z" transform="translate(-26.95 -64.27)"/><path class="cls-2" d="M250.47,150.54s-11.17-5.09-19.09-2.83S199.06,164,187.24,167c-5.38,1.37-15.6,5.44-26.46,8.19" transform="translate(-26.95 -64.27)"/></svg>