<svg xmlns="http://www.w3.org/2000/svg" viewBox="0 0 509.4 150.35"><defs><style>.cls-1{fill:#00afff;}.cls-2{font-size:90px;fill:#0011c9;font-family:BaiJamjuree-Bold, Bai Jamjuree;font-weight:700;}.cls-3{letter-spacing:-0.02em;}.cls-4{fill:#005574;}</style></defs><title>logoAsset 1</title><g id="Layer_2" data-name="Layer 2"><g id="graphics"><path class="cls-1" d="M110.35,9.85A16.39,16.39,0,0,0,96.19,1.68H70.36A16.38,16.38,0,0,0,56.21,9.85l-54,93.58a16.34,16.34,0,0,0,0,16.33l13,22.42a16.39,16.39,0,0,0,14.16,8.17H51.83A16.4,16.4,0,0,0,66,142.18l6.9-12a17.66,17.66,0,0,0,2.36-8.8V96.91A2.38,2.38,0,0,0,71.46,95L33.83,121.23a2.12,2.12,0,0,1-3.09-.63l-4.39-7.5a3,3,0,0,1,.49-3.68l45-42.69a11.28,11.28,0,0,0,3.37-8V39.77C75.25,36,78,27.07,81.57,25a3.79,3.79,0,0,1,3.09-.2c3.8,1.55,6.73,11,6.73,14.93V58.7a11.31,11.31,0,0,0,3.36,8l41.71,42.69a3,3,0,0,1,.49,3.68l-4.38,7.5a2.12,2.12,0,0,1-3.09.63L95.18,95a2.38,2.38,0,0,0-3.79,1.91v24.51a17.53,17.53,0,0,0,2.36,8.8l6.9,12a16.38,16.38,0,0,0,14.15,8.17h22.35a16.49,16.49,0,0,0,14.2-8.15l13.06-22.32a16.3,16.3,0,0,0,0-16.32Z"/><text class="cls-2" transform="translate(175.44 76.5)">HIS<tspan class="cls-3" x="149.76" y="0">S</tspan><tspan x="207.18" y="0">AN</tspan></text><path class="cls-4" d="M183,143.58l16-55.47h11.33l16,55.47h-8.2L205,94.83h-.7l-13.12,48.75Zm7.42-13.52v-7.42h28.13v7.42Z"/><path class="cls-4" d="M238.67,143.58V88.11h8.12v55.47Zm0-48.05V88.11h36.72v7.42Zm0,24v-7.42h29.69v7.42Zm0,24.07v-7.43h36.72v7.43Z"/><path class="cls-4" d="M289.08,143.58V88.11h8.13v55.47Zm7.58-21.1v-7.42h11.49a10.11,10.11,0,0,0,7.24-2.46,9.08,9.08,0,0,0,2.6-6.91q0-4.89-2.6-7.52a9.7,9.7,0,0,0-7.24-2.64H296.82l-.94-7.42h12.27q8.63,0,13.34,4.37t4.7,12.42q0,8.37-4.7,13t-13.34,4.61Zm22.19,21.1-12.42-26.1H315l13.2,26.1Z"/><path class="cls-4" d="M358.25,144.36q-20.47,0-20.47-28.13,0-28.91,20.47-28.9t20.47,28.9Q378.72,144.35,358.25,144.36Zm0-7.19q12.11,0,12.11-20.94,0-21.72-12.11-21.72t-12.11,21.72Q346.14,137.17,358.25,137.17Z"/></g></g></svg>