<svg xmlns="http://www.w3.org/2000/svg" viewBox="0 0 709.44 209.49"><defs><style>.cls-1{fill:#00afff;}.cls-2{font-size:131px;font-family:BaiJamjuree-Bold, Bai Jamjuree;font-weight:700;}.cls-3{opacity:0.67;}.cls-4{fill:#b9ff66;}</style></defs><title>logoAsset 2</title><g id="Layer_2" data-name="Layer 2"><g id="graphics"><path class="cls-1" d="M155.5,11.51A23.1,23.1,0,0,0,135.55,0H99.15a23.1,23.1,0,0,0-20,11.51L3.08,143.37a23.05,23.05,0,0,0,0,23L21.36,198a23.08,23.08,0,0,0,20,11.51H73A23.09,23.09,0,0,0,93,198l9.73-16.84a24.9,24.9,0,0,0,3.32-12.4V134.19a3.35,3.35,0,0,0-5.34-2.69l-53,37a3,3,0,0,1-4.35-.88L37.14,157a4.27,4.27,0,0,1,.69-5.2L101.3,91.66A15.91,15.91,0,0,0,106,80.35V53.67c0-5.36,3.83-17.89,8.91-20.76a5.35,5.35,0,0,1,4.35-.28c5.36,2.19,9.49,15.48,9.49,21V80.35a15.87,15.87,0,0,0,4.74,11.31l58.77,60.15A4.27,4.27,0,0,1,193,157l-6.17,10.57a3,3,0,0,1-4.35.88l-48.34-37a3.35,3.35,0,0,0-5.34,2.69v34.54a24.87,24.87,0,0,0,3.32,12.4L141.83,198a23.09,23.09,0,0,0,19.94,11.51h31.49a23.26,23.26,0,0,0,20-11.47l18.4-31.47a22.91,22.91,0,0,0,.07-23Z"/><text class="cls-2" transform="translate(254.8 113.64)">Hissan</text><g class="cls-3"><path class="cls-4" d="M256.8,204.9,275,141.8h12.89l18.21,63.1h-9.33l-14.93-55.45h-.8L266.13,204.9Zm8.44-15.38v-8.44h32v8.44Z"/><path class="cls-4" d="M338.87,205.79q-12,0-18.6-6.34t-6.55-18.19q0-11.55,5.55-17.95t15.69-6.4q9.56,0,14.77,5.78T355,179.48c0,2.17-.09,4.18-.27,6.05H321.63v-7.2h24.79q0-6.36-3-9.76a10.61,10.61,0,0,0-8.35-3.4,11.32,11.32,0,0,0-9.31,4.09q-3.32,4.1-3.31,11.56,0,8.18,4.55,12.44t13,4.26a50,50,0,0,0,5.77-.33c1.9-.22,3.82-.53,5.78-.91l1.15,8.26a61.1,61.1,0,0,1-7.64,1C342.69,205.71,340.65,205.79,338.87,205.79Z"/><path class="cls-4" d="M365,204.9v-8.27h31.46v8.27Zm1.77-38.84V157.8H382.5l.89,8.26Zm8.71,38.84V157.8h7.65l1.77,13.51V204.9Zm9.42-20.26-2.75-14.76h3.64q.81-13,13-13,7.28,0,10.57,4.18t3.29,13.5H403.3q0-5.15-1.53-7.42a5.57,5.57,0,0,0-5-2.26,9.67,9.67,0,0,0-8.95,5.13Q384.91,175.17,384.9,184.64Z"/><path class="cls-4" d="M441.42,205.79q-9.76,0-15.19-6.4t-5.42-18q0-11.68,5.42-18.06t15.19-6.38q9.82,0,15.22,6.38t5.4,18.06q0,11.64-5.4,18T441.42,205.79Zm0-8.45a9.11,9.11,0,0,0,8-4.17q2.82-4.18,2.82-11.82t-2.82-11.84a9.81,9.81,0,0,0-16,0q-2.82,4.16-2.82,11.84t2.82,11.82A9.12,9.12,0,0,0,441.42,197.34Z"/></g></g></g></svg>