<svg xmlns="http://www.w3.org/2000/svg" viewBox="0 0 234.79 209.49"><defs><style>.cls-1{fill:#00afff;}</style></defs><title>1bgAsset 1</title><g id="Layer_2" data-name="Layer 2"><g id="graphics"><path class="cls-1" d="M155.5,11.51A23.1,23.1,0,0,0,135.55,0H99.15a23.1,23.1,0,0,0-20,11.51L3.08,143.37a23.05,23.05,0,0,0,0,23L21.36,198a23.08,23.08,0,0,0,20,11.51H73A23.09,23.09,0,0,0,93,198l9.73-16.84a24.9,24.9,0,0,0,3.32-12.4V134.19a3.35,3.35,0,0,0-5.34-2.69l-53,37a3,3,0,0,1-4.35-.88L37.14,157a4.27,4.27,0,0,1,.69-5.2L101.3,91.66A15.91,15.91,0,0,0,106,80.35V53.67c0-5.36,3.83-17.89,8.91-20.76a5.35,5.35,0,0,1,4.35-.28c5.36,2.19,9.49,15.48,9.49,21V80.35a15.87,15.87,0,0,0,4.74,11.31l58.77,60.15A4.27,4.27,0,0,1,193,157l-6.17,10.57a3,3,0,0,1-4.35.88l-48.34-37a3.35,3.35,0,0,0-5.34,2.69v34.54a24.87,24.87,0,0,0,3.32,12.4L141.83,198a23.09,23.09,0,0,0,19.94,11.51h31.49a23.26,23.26,0,0,0,20-11.47l18.4-31.47a22.91,22.91,0,0,0,.07-23Z"/></g></g></svg>