<svg width="405" height="197" viewBox="0 0 405 197" fill="none" xmlns="http://www.w3.org/2000/svg">
<g filter="url(#filter0_d_28_43)">
<path d="M37 36C37 25.5066 51.5066 17 62 17H346C356.493 17 365 25.5066 365 36L342.5 139.5C342.5 149.993 324.993 156 314.5 156H37C26.5066 156 18 147.493 18 137L37 36Z" fill="#D9D9D9"/>
</g>
<path d="M155.531 67.573V106.948H146.426V90.8113H128.531V106.948H119.426V67.573H128.531V83.0945H146.426V67.573H155.531Z" fill="#00367D"/>
<path d="M164.869 67.573H173.974V106.948H164.869V67.573Z" fill="#00367D"/>
<path d="M196.253 107.616C193.133 107.616 190.123 107.194 187.218 106.35C184.309 105.507 181.98 104.412 180.222 103.063L183.316 96.2078C185.003 97.4382 187.007 98.4314 189.328 99.1785C191.648 99.9299 193.973 100.303 196.306 100.303C198.895 100.303 200.806 99.9255 202.037 99.1609C203.276 98.3875 203.9 97.3635 203.9 96.0847C203.9 95.1487 203.531 94.3752 202.792 93.7644C202.063 93.1448 201.127 92.6482 199.98 92.2703C198.842 91.8967 197.295 91.4792 195.339 91.0222C192.338 90.3191 189.881 89.6116 187.974 88.8953C186.062 88.1833 184.423 87.0408 183.052 85.4675C181.681 83.8855 180.996 81.7849 180.996 79.157C180.996 76.8718 181.615 74.8064 182.859 72.9519C184.098 71.0886 185.961 69.6208 188.449 68.5398C190.945 67.45 193.99 66.905 197.589 66.905C200.107 66.905 202.564 67.2039 204.955 67.8015C207.354 68.3992 209.459 69.2605 211.265 70.3855L208.453 77.3113C204.818 75.2502 201.18 74.2175 197.537 74.2175C194.992 74.2175 193.111 74.6306 191.894 75.448C190.672 76.2698 190.066 77.3596 190.066 78.7175C190.066 80.0667 190.769 81.0686 192.175 81.7234C193.582 82.3826 195.726 83.0242 198.609 83.657C201.606 84.3733 204.062 85.0896 205.974 85.8015C207.881 86.5178 209.525 87.6428 210.896 89.1765C212.267 90.7146 212.953 92.7932 212.953 95.4167C212.953 97.6667 212.324 99.7234 211.072 101.587C209.815 103.441 207.93 104.909 205.412 105.999C202.902 107.075 199.848 107.616 196.253 107.616Z" fill="#00367D"/>
<path d="M232.135 107.616C229.015 107.616 226.005 107.194 223.1 106.35C220.191 105.507 217.862 104.412 216.104 103.063L219.198 96.2078C220.885 97.4382 222.889 98.4314 225.21 99.1785C227.53 99.9299 229.855 100.303 232.188 100.303C234.777 100.303 236.688 99.9255 237.919 99.1609C239.158 98.3875 239.782 97.3635 239.782 96.0847C239.782 95.1487 239.413 94.3752 238.675 93.7644C237.945 93.1448 237.009 92.6482 235.862 92.2703C234.724 91.8967 233.177 91.4792 231.221 91.0222C228.22 90.3191 225.763 89.6116 223.856 88.8953C221.945 88.1833 220.305 87.0408 218.934 85.4675C217.563 83.8855 216.878 81.7849 216.878 79.157C216.878 76.8718 217.497 74.8064 218.741 72.9519C219.98 71.0886 221.844 69.6208 224.331 68.5398C226.827 67.45 229.872 66.905 233.471 66.905C235.99 66.905 238.446 67.2039 240.837 67.8015C243.236 68.3992 245.341 69.2605 247.147 70.3855L244.335 77.3113C240.7 75.2502 237.062 74.2175 233.419 74.2175C230.874 74.2175 228.993 74.6306 227.776 75.448C226.554 76.2698 225.948 77.3596 225.948 78.7175C225.948 80.0667 226.651 81.0686 228.057 81.7234C229.464 82.3826 231.608 83.0242 234.491 83.657C237.488 84.3733 239.945 85.0896 241.856 85.8015C243.763 86.5178 245.407 87.6428 246.778 89.1765C248.149 90.7146 248.835 92.7932 248.835 95.4167C248.835 97.6667 248.206 99.7234 246.954 101.587C245.697 103.441 243.812 104.909 241.294 105.999C238.784 107.075 235.73 107.616 232.135 107.616Z" fill="#00367D"/>
<path d="M281.008 98.5105H262.726L259.228 106.948H249.894L267.455 67.573H276.455L294.051 106.948H284.488L281.008 98.5105ZM278.142 91.5847L271.885 76.5203L265.644 91.5847H278.142Z" fill="#00367D"/>
<path d="M334.266 67.573V106.948H326.778L307.161 83.0417V106.948H298.161V67.573H305.684L325.266 91.4792V67.573H334.266Z" fill="#00367D"/>
<mask id="mask0_28_43" style="mask-type:luminance" maskUnits="userSpaceOnUse" x="43" y="51" width="72" height="72">
<path d="M43 51H115V123H43V51Z" fill="white"/>
</mask>
<g mask="url(#mask0_28_43)">
<mask id="mask1_28_43" style="mask-type:luminance" maskUnits="userSpaceOnUse" x="36" y="44" width="86" height="86">
<path d="M57.6382 44.3073L121.675 65.6559L100.331 129.689L36.2939 108.344L57.6382 44.3073Z" fill="white"/>
</mask>
<g mask="url(#mask1_28_43)">
<mask id="mask2_28_43" style="mask-type:luminance" maskUnits="userSpaceOnUse" x="36" y="44" width="86" height="86">
<path d="M57.6382 44.3073L121.675 65.6559L100.331 129.689L36.2939 108.344L57.6382 44.3073Z" fill="white"/>
</mask>
<g mask="url(#mask2_28_43)">
<path d="M43.9624 85.3433C66.6997 83.2251 61.3208 60.8701 61.3208 60.8701L78.4946 83.7832L54.8916 100.847L43.9624 85.3433ZM65.311 62.9663L82.375 86.5693L105.288 69.3911C105.288 69.3911 82.9375 74.77 80.8149 52.0371L65.311 62.9663ZM103.192 73.3813L79.5889 90.4497L96.7671 113.363C96.7671 113.363 91.3882 91.0078 114.121 88.8897L103.192 73.3813ZM92.7769 111.267L75.7085 87.6636L52.7954 104.837C52.7954 104.837 75.1504 99.4629 77.2686 122.196L92.7769 111.267Z" fill="#737373"/>
</g>
</g>
</g>
<defs>
<filter id="filter0_d_28_43" x="0.9" y="0.9" width="403.2" height="195.2" filterUnits="userSpaceOnUse" color-interpolation-filters="sRGB">
<feFlood flood-opacity="0" result="BackgroundImageFix"/>
<feColorMatrix in="SourceAlpha" type="matrix" values="0 0 0 0 0 0 0 0 0 0 0 0 0 0 0 0 0 0 127 0" result="hardAlpha"/>
<feOffset dx="11" dy="12"/>
<feGaussianBlur stdDeviation="14.05"/>
<feComposite in2="hardAlpha" operator="out"/>
<feColorMatrix type="matrix" values="0 0 0 0 0.165467 0 0 0 0 0.388431 0 0 0 0 0.68 0 0 0 0.56 0"/>
<feBlend mode="normal" in2="BackgroundImageFix" result="effect1_dropShadow_28_43"/>
<feBlend mode="normal" in="SourceGraphic" in2="effect1_dropShadow_28_43" result="shape"/>
</filter>
</defs>
</svg>
