<svg width="957" height="237" viewBox="0 0 957 237" fill="none" xmlns="http://www.w3.org/2000/svg">
<path d="M369.374 54.3994V183.644H339.486V130.677H280.749V183.644H250.861V54.3994H280.749V105.347H339.486V54.3994H369.374Z" fill="#00367D"/>
<path d="M400.023 54.3994H429.911V183.644H400.023V54.3994Z" fill="#00367D"/>
<path d="M503.04 185.837C492.799 185.837 482.918 184.452 473.383 181.682C463.834 178.913 456.189 175.321 450.419 170.893L460.574 148.39C466.113 152.429 472.691 155.689 480.307 158.141C487.923 160.608 495.554 161.834 503.214 161.834C511.71 161.834 517.984 160.594 522.023 158.084C526.091 155.545 528.139 152.184 528.139 147.987C528.139 144.914 526.928 142.375 524.504 140.37C522.11 138.336 519.037 136.706 515.273 135.466C511.537 134.24 506.459 132.87 500.04 131.369C490.188 129.061 482.125 126.739 475.864 124.388C469.59 122.051 464.209 118.301 459.709 113.137C455.208 107.944 452.958 101.049 452.958 92.4228C452.958 84.922 454.992 78.1424 459.074 72.0552C463.142 65.9392 469.258 61.1213 477.422 57.5729C485.615 53.9956 495.612 52.2069 507.426 52.2069C515.691 52.2069 523.754 53.1878 531.601 55.1495C539.477 57.1113 546.386 59.9385 552.315 63.6312L543.083 86.3645C531.154 79.5993 519.21 76.2095 507.252 76.2095C498.901 76.2095 492.727 77.5654 488.731 80.2484C484.721 82.9458 482.731 86.5231 482.731 90.9803C482.731 95.4087 485.038 98.6975 489.654 100.847C494.27 103.01 501.309 105.116 510.772 107.194C520.61 109.545 528.673 111.896 534.948 114.233C541.208 116.584 546.603 120.277 551.103 125.311C555.604 130.36 557.854 137.182 557.854 145.794C557.854 153.179 555.791 159.93 551.68 166.046C547.555 172.133 541.367 176.951 533.101 180.529C524.865 184.063 514.84 185.837 503.04 185.837Z" fill="#00367D"/>
<path d="M620.82 185.837C610.578 185.837 600.698 184.452 591.163 181.682C581.614 178.913 573.969 175.321 568.199 170.893L578.354 148.39C583.893 152.429 590.47 155.689 598.087 158.141C605.703 160.608 613.333 161.834 620.993 161.834C629.489 161.834 635.764 160.594 639.803 158.084C643.87 155.545 645.919 152.184 645.919 147.987C645.919 144.914 644.707 142.375 642.284 140.37C639.889 138.336 636.817 136.706 633.052 135.466C629.316 134.24 624.239 132.87 617.82 131.369C607.968 129.061 599.904 126.739 593.644 124.388C587.369 122.051 581.989 118.301 577.488 113.137C572.988 107.944 570.738 101.049 570.738 92.4228C570.738 84.922 572.771 78.1424 576.854 72.0552C580.921 65.9392 587.037 61.1213 595.202 57.5729C603.395 53.9956 613.391 52.2069 625.205 52.2069C633.47 52.2069 641.534 53.1878 649.381 55.1495C657.257 57.1113 664.166 59.9385 670.094 63.6312L660.863 86.3645C648.934 79.5993 636.99 76.2095 625.032 76.2095C616.68 76.2095 610.506 77.5654 606.511 80.2484C602.501 82.9458 600.51 86.5231 600.51 90.9803C600.51 95.4087 602.818 98.6975 607.434 100.847C612.05 103.01 619.089 105.116 628.551 107.194C638.389 109.545 646.452 111.896 652.727 114.233C658.987 116.584 664.382 120.277 668.883 125.311C673.383 130.36 675.634 137.182 675.634 145.794C675.634 153.179 673.571 159.93 669.46 166.046C665.334 172.133 659.146 176.951 650.881 180.529C642.644 184.063 632.619 185.837 620.82 185.837Z" fill="#00367D"/>
<path d="M781.238 155.949H721.232L709.75 183.644H679.112L736.753 54.3994H766.294L824.051 183.644H792.663L781.238 155.949ZM771.833 133.216L751.293 83.768L730.81 133.216H771.833Z" fill="#00367D"/>
<path d="M956.055 54.3994V183.644H931.475L867.083 105.174V183.644H837.542V54.3994H862.237L926.513 132.869V54.3994H956.055Z" fill="#00367D"/>
<mask id="mask0_50_41" style="mask-type:luminance" maskUnits="userSpaceOnUse" x="0" y="0" width="237" height="237">
<path d="M0 0H236.333V236.333H0V0Z" fill="white"/>
</mask>
<g mask="url(#mask0_50_41)">
<mask id="mask1_50_41" style="mask-type:luminance" maskUnits="userSpaceOnUse" x="-23" y="-22" width="282" height="281">
<path d="M48.0484 -21.9686L258.244 48.1063L188.184 258.288L-22.0121 188.227L48.0484 -21.9686Z" fill="white"/>
</mask>
<g mask="url(#mask1_50_41)">
<mask id="mask2_50_41" style="mask-type:luminance" maskUnits="userSpaceOnUse" x="-23" y="-22" width="282" height="281">
<path d="M48.0484 -21.9686L258.244 48.1063L188.184 258.288L-22.0121 188.227L48.0484 -21.9686Z" fill="white"/>
</mask>
<g mask="url(#mask2_50_41)">
<path d="M3.159 112.729C77.7921 105.776 60.1363 32.398 60.1363 32.398L116.508 107.608L39.0331 163.619L3.159 112.729ZM73.2339 39.2785L129.245 116.753L204.455 60.3673C204.455 60.3673 131.091 78.0231 124.124 3.40442L73.2339 39.2785ZM197.574 73.4649L120.1 129.49L176.486 204.7C176.486 204.7 158.83 131.322 233.448 124.369L197.574 73.4649ZM163.388 197.82L107.363 120.345L32.1525 176.716C32.1525 176.716 105.531 159.075 112.483 233.694L163.388 197.82Z" fill="#737373"/>
</g>
</g>
</g>
</svg>
