<svg width="316" height="315" viewBox="0 0 316 315" fill="none" xmlns="http://www.w3.org/2000/svg">
<path d="M132.667 22.5333C115.067 35.0667 99.7333 46 98.5333 47.0667C96.5333 48.6667 98.8 52.1333 120.267 81.4667C133.333 99.4667 144.8 114 145.467 113.733C146.267 113.6 146.4 113.833 146 114.5C144.867 113.259 148.933 120.933 153.333 127.067C157.867 133.2 163.867 141.6 166.8 145.733C169.733 150 172.533 153.467 173.2 153.467C173.867 153.467 196.533 136.8 223.6 116.4L272.933 79.3333L253.467 79.4667C222.533 79.4667 206.8 73.8667 189.867 56.9333C178.933 46 172.4 33.7333 168.8 17.4667C167.467 12 166.133 5.73334 165.6 3.73334L164.667 0L132.667 22.5333Z" fill="black"/>
<path d="M79.7333 59.6C80.2667 79.8666 78 92.1333 70.5333 107.467C61.0667 127.333 38.9333 142.533 12.4 147.733L0 150.133L23.4667 183.467C36.2667 201.733 47.3333 217.2 47.8667 217.867C48.4 218.4 60.1333 210.667 74.1333 200.533C135.067 156.533 148.8 146.533 151.6 144.4L154.667 142.133L122.667 99.4666C105.067 76 88 53.4666 84.9333 49.3333L79.3333 42L79.7333 59.6Z" fill="black"/>
<path d="M246.533 110.533C235.867 118.4 212.4 135.467 194.267 148.667C174.267 163.067 161.733 173.067 162.267 174C162.8 174.8 169.2 183.6 176.667 193.467C184.133 203.333 200.267 224.933 212.667 241.467C224.933 258 235.467 272 236 272.533C236.533 273.2 236.4 270.533 235.733 266.533C232.667 250.533 237.333 220.533 244.933 206.4C249.733 197.6 261.6 184.8 270 179.467C278.533 174 293.733 168.533 306 166.4L315.733 164.8L291.733 130.8C278.533 112.133 267.467 96.6667 266.933 96.5333C266.4 96.4 257.2 102.8 246.533 110.533Z" fill="black"/>
<path d="M122.533 175.867C112 183.867 90.1333 200.267 74 212.267C58 224.267 43.8667 234.8 42.8 235.6C41.3333 236.8 42.8 236.8 48.8 235.867C58.5333 234.267 80.8 235.467 90.6667 238.133C100.133 240.667 115.2 248.133 121.867 253.6C134.267 264 145.067 284.667 148.267 304.4C149.067 309.733 150 314.267 150.133 314.533C151.067 315.867 218 268.133 217.867 266.267C217.6 263.333 207.733 250.8 206.4 251.733C205.867 252.533 205.467 252.133 206.4 251.733C206.933 250.933 194.667 232.8 178.933 211.2C163.733 190.133 149.467 170.267 147.333 167.2C145.067 164 142.933 161.467 142.533 161.467C142 161.467 133.067 168 122.533 175.867Z" fill="black"/>
</svg>
